<?xml version="1.0" encoding="UTF-8"?>
<svg id="Ebene_1" data-name="Ebene 1" xmlns="http://www.w3.org/2000/svg" viewBox="0 0 1305.88 1080">
  <path d="M1131.02,821.9c-11.11,37.69-30.71,69.12-63.9,91.42,1.12,1.96,2.31,4.04,3.51,6.11,6.62,11.4,3.9,24.01-6.81,31.55-4.48,3.15-4.44,3.13-1.77,7.8,6.43,11.24,12.15,22.85,17.8,34.49,2.4,4.94,4.5,10.04,7.49,14.69,.92,1.42,1.73,3.04-.12,4.22-1.74,1.11-3.04-.16-4.14-1.43-2.03-2.36-3.28-5.18-4.64-7.94-5.63-11.47-11.21-22.96-16.88-34.42-1.5-3.04-3.32-5.93-4.84-8.97-1.32-2.63-3.03-3.79-6.17-3.25-2.67,.46-5.49,.22-8.23,.1-7.69-.35-13.47-3.97-17.65-10.37-6.71-10.28-13.46-20.52-20.22-30.76-2.13-3.22-2.17-3.19-5.77-1.7-6.72,2.8-13.36,5.78-20.16,8.36-11.42,4.34-22.91,4.06-34.01-.95-14.81-6.67-21.33-19.11-22.69-34.64-.5-5.68-.24-5.39-5.81-6.76-11.29-2.77-19.52-9.73-25.18-19.77-1.83-3.25-2.88-6.85-3.89-10.43-1.51-5.37-1.01-10.57,1.36-15.6,1.03-2.18,2.05-4.35,3.22-6.82-1.59-.96-3.22-.51-4.71-.57-21.42-.81-38.2-21.93-34.23-43,.93-4.95,3.17-9.12,6.61-12.71,3.25-3.4,6.88-6.37,10.61-9.23,6.55-5.02,13.03-10.13,19.64-15.07,1.91-1.43,2.63-2.63,.88-4.66-1.35-1.57-2.06-3.64-3.98-5.12-2.45,2.42-4.93,4.69-7.19,7.15-4.62,5.02-9.42,9.83-15.27,13.41-10.82,6.63-22.18,6.04-32.85,.47-13.04-6.81-17.62-22.51-11.66-36.6,2.97-7.01,6.76-13.61,10.71-20.11,.82-1.35,2.02-2.55,2.21-4.27-1.24-1.16-2.41-.21-3.55,.12-21.13,6.09-42.7,9-64.68,8.76-2.71-.03-4.95,.72-7.28,2.08-18.59,10.91-37.67,20.76-58.54,26.71-19.15,5.45-38.64,7.65-58.54,6.79-17.33-.75-34.59-2.06-51.47-6.2-30.92-7.6-55.72-24.4-74.26-50.35-.28-.4-.51-.84-.84-1.19-1.64-1.73-1.72-5.14-4.22-5.53-2.23-.34-4.7,.85-7.05,1.43-22.6,5.56-45.35,10.64-67.51,17.84-29.47,9.57-57.83,21.65-84.25,38.02-25.63,15.87-47.26,36.1-65.42,60.06-5.37,7.09-10.37,14.46-15.45,21.77-12.4,17.84-20.84,37.53-27.39,58.15-8.97,28.21-17.85,56.43-23.46,85.56-.35,1.82-.49,4.14-3.17,4.16-1.73,.01-2.34-1.82-1.87-5.19,1.87-13.5,5.49-26.59,9.12-39.68,5.97-21.51,12.6-42.81,20.18-63.82,2.64-7.32,5.66-14.48,9.45-21.26,18.33-32.73,40.51-62.38,69.76-86.31,20.32-16.62,43.03-29.2,66.87-39.94,29.62-13.34,60.63-22.36,92.12-29.92,16.82-4.04,33.6-8.27,50.55-11.75,.6-.12,1.18-.39,1.53-.51,.66-.9,.31-1.5-.02-2.03-10.39-16.75-17.86-34.78-23.29-53.68-4.86-16.94-10.23-33.74-13.37-51.13-3.32-18.33-5.01-36.85-6.61-55.39-.1-1.13-.16-2.26-.23-3.39-.09-1.4-.86-1.92-2.23-1.91-15.9,.16-24.7-9.56-30.75-22.62-3.98-8.59-5.2-17.98-6.67-27.25-2.18-13.69-2.26-27.37-.05-41.08,1.07-6.62,2.91-12.93,6.44-18.67,2.95-4.8,6.96-8.22,12.83-8.39,2.84-.08,3.04-1.39,2.93-3.63-.62-13.76-.1-27.5,1.06-41.22,1.78-21.06,5.5-41.68,13.84-61.26,.5-1.16,1.3-2.28,.81-3.89-7.83-.37-15.73-.76-23.56-1.97-4.64-.72-9.25-1.56-13.75-2.89-1.7-.5-3.39-1.09-4.98-1.86-5.67-2.75-6.25-6.31-1.37-10.32,6.25-5.14,12.77-9.93,19.13-14.93,10.1-7.94,19.47-16.59,26.14-27.76,1.3-2.18,2.88-4.26,3.17-7.56-6.87,.58-13.43,1.07-19.98,1.7-21.34,2.04-42.34,.81-62.72-6.4-2.74-.97-5.4-2.16-8.02-3.43-2.08-1-4.12-2.36-3.94-5.02,.19-2.7,2.42-3.62,4.67-4.27,7.61-2.2,15.21-4.43,22.84-6.55,31.11-8.67,61.04-20.29,89.44-35.74,26.33-14.33,54.32-24.06,83.59-30.39,24.04-5.2,48.27-7.24,72.81-5.78,15.87,.94,31.43,3.94,46.94,7.24,24.09,5.11,48.34,9,73.03,9.54,12.33,.27,24.58-.28,36.69-2.86,5.62-1.19,7.23,.08,8.03,5.93,.61,4.52,.3,9.07-.09,13.57-.4,4.62,1.58,7.25,5.57,9.09,5.86,2.7,12.1,3.45,18.39,3.99,8.95,.76,9,.7,10.21,9.29,1.2,8.47,4.63,16.13,8.5,23.62,6.38,12.36,13.06,24.58,18.71,37.29,9.96,22.38,15.31,45.95,17.95,70.22,.91,8.37,1.35,16.78,1.38,25.19,0,2.85,1.02,4.78,3.03,6.72,32.17,31.11,53.56,68.42,62.72,112.25,13.01,62.26,1.23,119.82-34.41,172.5-3.47,5.13-4.08,3.91,.75,8.43,12.47,11.67,23.01,25.03,32.8,38.9,4.34,6.15,9.12,10.25,16.44,12.24,9.55,2.59,18.52,6.81,26.44,12.91,6.31,4.87,11.34,11.06,16.93,16.68,7.61,7.65,13.29,16.68,18.25,26.18,1.3,2.49,2.98,4.51,5.11,6.35,6.76,5.83,12.27,12.87,18.27,19.44,21.08,23.11,40.18,47.8,58.19,73.35,20.55,29.14,43.12,56.63,67.05,83.04,2.17,2.4,4.24,4.89,6.25,7.42,1,1.26,1.83,2.66,2.63,4.07,.75,1.32,1.24,2.87-.28,3.91-1.77,1.22-3.03,.06-4.02-1.37-4.37-6.26-9.65-11.76-14.74-17.4-22.48-24.9-43.26-51.13-62.66-78.48-1.19-1.68-2.23-3.52-4.09-4.95Zm-182.71-337.67c-.12-99.65-80.65-178.3-177.9-178.8-97.12-.5-179.27,77.29-179.7,178.47-.43,98.43,79.85,178.92,178.16,179.08,99.18,.16,179.32-79.67,179.45-178.75Zm-45.36,232.72c3.42,.57,6.15,.92,8.83,1.5,2.84,.61,6.34,.72,8.13,2.79,2.41,2.79,3.99,1.45,6.1,.28,8.75-4.89,17.51-9.77,26.29-14.61,1.4-.77,2.92-1.4,4.45-1.86,1.01-.31,1.88,.31,2.38,1.25,.53,1,.25,1.98-.57,2.6-1.02,.77-2.21,1.32-3.32,1.97-11.46,6.66-23.06,13.12-34.36,20.03-18.53,11.33-35.34,25.07-52.43,38.41-2.28,1.78-4.29,3.93-6.3,6.03-2.17,2.27-3.45,5.06-4.17,8.11-3.29,13.91,6.51,31.39,20.15,35.86,9.59,3.15,18.87,1.9,27.8-2.39,6.42-3.08,12.52-6.74,18.41-10.76,14.18-9.67,27.72-20.18,41.41-30.51,1.29-.97,2.6-1.92,4.01-2.71,.89-.5,1.91-.32,2.66,.48,.93,.98,.86,2.13,.04,3.07-.95,1.09-2.02,2.1-3.16,2.99-14.89,11.68-29.93,23.19-45.75,33.59-7.01,4.61-14.24,8.97-22.39,11.46-.9,.28-1.98,.67-2.51,1.37-4.66,6.17-8.65,12.66-6.88,20.91,.95,4.44,2.42,8.82,5.05,12.53,8.93,12.6,20.07,18.08,34.62,14.25,4.89-1.28,9.46-3.25,13.76-5.9,13.93-8.58,27.18-18.13,40.22-27.98,.77-.58,1.51-1.22,2.29-1.8,1.37-1.02,2.93-1.93,4.25-.24,1.32,1.69,.02,3.04-1.22,4.14-1.93,1.72-3.87,3.45-5.93,5-11.1,8.39-22.48,16.38-34.23,23.85-6.62,4.21-13.56,7.56-21.36,8.81-1.69,.27-2.47,.85-2.64,2.71-1.08,12,7.57,27.78,17.44,32.6,10.43,5.09,21.09,6.36,31.95,2.24,13-4.94,25.86-10.27,38.14-16.83,8.68-4.63,16.22-10.59,20.5-19.92,1.68-3.66,3.89-7.09,5.93-10.58,9.27-15.8,17.17-32.25,23.35-49.51,1.91-5.34,3.59-10.71,4.57-16.32,1.59-9.05,.74-18.06-.07-27.09-1.68-18.79-6.78-36.41-16.44-52.8-6.41-10.88-14.87-19.9-23.22-29.14-6.68-7.4-14.8-12.52-23.86-16.15-11.71-4.69-23.85-8.14-36.07-11.28-19.56-5.03-39-10.64-59.04-13.6-3.84-.57-7.7-1.01-11.57-1.33-13.99-1.16-25.71,3.86-35.52,13.55-11.37,11.22-20.25,24.34-28.24,38.09-.22,.37-.42,.89,.18,1.22,10.3-1.58,16.04,3.88,15.06,14.33-.06,.64-.14,1.29-.3,1.92-3.13,12.43-9.38,21.82-23.81,23.67,3.42,5.03,7.53,8.46,13.1,9.79,9.98,2.38,19.3,1.4,27.17-5.98,1.77-1.66,3.67-3.18,5.36-4.92,5.65-5.79,11.24-11.64,16.83-17.49,3.7-3.87,6.97-8.08,9.94-12.53,2.69-4.04,5.44-8.03,8.2-12.02,.73-1.06,1.54-2.08,2.38-3.06,.91-1.06,2.07-1.73,3.41-.93,1.62,.97,1.35,2.51,.56,3.82-1.41,2.35-3.02,4.59-4.53,6.89-1.65,2.51-3.8,4.74-5.04,8.09Zm-320.45-457.2c-1.31-.58-2.09-.26-2.87-.12-10.04,1.76-20.07,3.52-30.11,5.26-11.16,1.94-22.38,3.48-33.66,4.44-2.64,.23-4.23,1.16-4.96,3.67-.22,.77-.63,1.49-.95,2.23-11.95,27.83-17.79,56.99-19.28,87.17-1.66,33.52-.47,66.97,1.47,100.42,.87,15.02,2.07,30.02,3.34,45.01,1.44,17.09,3,34.18,6.27,51.03,4.29,22.11,10.89,43.61,17.93,64.96,3.5,10.62,8.21,20.78,13.71,30.5,13.07,23.09,31.3,40.3,57.2,48.14,18.84,5.71,38.19,6.78,57.68,4.76,15.39-1.6,29.98-6.5,44.42-11.83,.95-.35,2.31-.34,2.44-1.85-60.21-22.34-104.5-62.09-129.98-121.26-25.46-59.13-23.87-118.62,1.28-177.86-6.34-1.42-12.41-1.88-18.55-1.72-6.47,.17-12.94,.37-19.41,.49-2.59,.05-5.17-.19-7.66-1.05-3.56-1.23-6.39-3.2-7.11-7.19-.7-3.93,1-6.97,3.97-9.31,1.51-1.19,3.22-2.17,4.96-3,4.42-2.09,9.12-3.19,13.95-3.94,12.76-1.99,25.14,.16,37.46,3.2,3.8,.94,3.84,1.01,5.76-2.1,12.62-20.41,28.16-38.28,46.55-53.68,.78-.65,2.1-1.03,1.88-2.51-1.44-.6-2.9-.27-4.32-.24-15.23,.27-30.42-.47-45.56-2.07-4.97-.53-10-.91-14.77-2.64-6.35-2.31-7.66-6.04-3.8-11.52,2.79-3.96,5.9-7.71,8.88-11.54,4.58-5.89,8.8-12.01,11.76-18.9,.94-2.2,2.07-4.37,2.09-6.94Zm-67.51,416.06c.38,1.1,.47,1.58,.71,1.99,.48,.84,1,1.66,1.57,2.45,18.71,25.76,43.4,42.6,74.52,49.72,16.29,3.73,32.92,4.91,49.56,5.66,11.99,.54,23.9-.42,35.76-2.28,25.32-3.98,48.18-14.37,70.3-26.72,.65-.36,1.5-.64,1.28-1.9-12.81-1.34-25.61-3.18-38.05-6.78-3.94-1.14-7.32-.92-11.17,.68-30.1,12.51-61.11,18.55-93.78,12.97-17.18-2.94-33.05-8.74-47.06-19.29-7.29-5.49-13.58-11.96-19.18-19.12-1.12-1.43-2.04-2.68-4.33-2.09-6.56,1.69-13.19,3.11-20.12,4.72Zm552.73,67.93c0,.75-.12,1.24,.02,1.65,3.34,10.2,4.77,20.78,6.07,31.38,1.99,16.33,.5,32.13-5.62,47.63-6.68,16.89-14.36,33.23-23.52,48.9-.98,1.68-1.92,3.07-.57,5.27,3.54,5.74,3.51,5.88,8.98,2,19.16-13.61,33.57-31.24,43.62-52.37,5.24-11.01,8.25-22.76,9.42-34.95,.34-3.56-.64-6.42-3.08-9.2-9.83-11.17-19.43-22.55-29.16-33.81-1.88-2.18-3.58-4.57-6.15-6.49Zm-16.81,145.05c3.71,5.71,7.28,11.28,10.95,16.79,1.78,2.68,2.34,2.85,5.06,1.09,4.33-2.82,8.6-5.74,12.46-9.21,15.73-14.15,27.47-31.25,36.64-50.15,4.3-8.86,7.94-18.02,10.08-27.71,.61-2.78,.23-4.93-1.5-7.18-3.65-4.73-7.06-9.65-10.64-14.43-.7-.93-1.08-2.4-2.9-2.33-5.19,40.35-27.16,69.96-60.13,93.14ZM479.69,411.98c-3.53-7.16-5.66-14.57-6.65-22.32-.5-3.9-1.66-4.59-5.45-3.68-2.69,.65-4.57,2.35-6.11,4.49-1.81,2.51-3.05,5.31-4.08,8.23-1.84,5.23-2.54,10.68-3.15,16.15-2.18,19.62,.41,38.73,6.35,57.43,2.38,7.49,7.17,13.34,13.71,17.71,2.58,1.72,5.38,3.01,8.47,3.44,5.09,.7,6.1-.2,5.66-5.22-1.61-18.38-2.62-36.79-3.17-55.23-.14-4.53-.39-9.05-.53-13.58-.05-1.8-.85-2.78-2.65-2.62-3.25,.3-5.57,3.8-4.52,6.83,2.18,6.28,3.54,12.77,4.93,19.25,.78,3.63,1.31,7.31,1.97,10.97,.25,1.38,.18,2.68-1.29,3.28-1.69,.68-2.81-.26-3.52-1.68-.42-.85-.69-1.81-.86-2.75-.36-2.07-.54-4.17-.92-6.24-1.14-6.25-2.15-12.54-4.39-18.87-1.63,1.37-1.22,3-1.7,4.29-.42,1.14-1.1,2.02-2.45,1.95-1.64-.09-2.12-1.28-2.23-2.67-.21-2.49,.5-4.81,1.51-7.04,2.33-5.15,5.93-9.2,11.07-12.13Zm560.18,470.1c-.95,1.58-1.47,2.38-1.93,3.23-3.01,5.45-7.04,9.9-12.02,13.72-4.67,3.58-9.81,6.17-14.97,8.81-3.42,1.76-3.47,1.79-1.5,4.82,3.42,5.28,7.08,10.42,10.29,15.83,1.61,2.71,3.56,2.9,6.1,2.22,4.86-1.3,9.42-3.34,13.89-5.61,6.3-3.21,11.34-7.91,15.95-13.18,1.67-1.91,1.75-3.42,.25-5.48-2.46-3.39-4.63-7-6.93-10.51-2.91-4.43-5.83-8.85-9.12-13.85Zm-61.03-217.65c-.37-1.14-.4-1.49-.58-1.72-10.76-14.16-21.69-28.19-34.73-40.38-2.24-2.09-2.37-2.11-4.41,.42-7.03,8.68-14.62,16.85-22.8,24.46-.45,.42-1.02,.84-.76,1.98,21.05,3.92,41.8,9.84,63.28,15.24Zm-60.08,61.39c-4.93-1.86-9.01-2.85-13.16-3.48-4.05-.62-7.71-.3-10.04,3.86-.85,1.52-2.25,2.74-3.5,4-1.05,1.06-1.43,2.06-.44,3.37,1.73,2.29,2.87,5.02,5.24,7.21,6.98-5.18,13.96-10.04,21.9-14.97Z"/>
  <path d="M357.75,542.05c-31.22-1.35-60.16-9.65-85.74-28.22-2.35-1.7-4.47-4.37-7.26-4.62-2.63-.23-4.77,2.43-7.17,3.73-12.57,6.79-26.13,10.34-40.19,12.03-23,2.75-45.52-.02-67.59-6.67-12.46-3.76-23.49-9.96-31.84-20.29-2.66-3.29-5.19-6.69-6.61-10.68-.91-2.56-2.73-3.77-4.84-5.06-19.4-11.88-28.21-39.3-19.38-60.14,8.82-20.82,32.31-33.92,54.93-30.67,2.52,.36,5.39,1.99,7.47,.71,1.89-1.16,1.42-4.43,2.39-6.65,3.22-7.29,7.13-14.21,12.3-20.25,22.1-25.82,49.66-43.26,83.08-49.23,37.1-6.63,68.24,5.72,91.02,35.89,15.85,21,24.77,45.26,27.86,71.52,.36,3.04-.11,6.66,1.74,8.86,1.81,2.15,5.48,1.04,8.31,1.38,14.74,1.77,24.62,10.44,27.97,24.96,.9,3.93,1.44,7.95,1.95,11.96,.31,2.41,1.11,4.04,3.47,5.28,6.45,3.39,9.93,9.05,11.08,16.18,2.7,16.66-4.4,28.95-17.56,38.21-8.05,5.67-17.35,8.56-26.99,10.28-6.07,1.08-12.21,1.4-18.4,1.51Zm-3.48-5.33c11.89,0,19.94-.82,27.78-2.96,10.3-2.82,19.75-7.2,26.73-15.75,6.49-7.94,8.54-16.9,6.26-26.84-1.14-5-3.94-8.93-8.73-10.98-3.4-1.46-4.86-3.77-5.23-7.39-.53-5.14-1.12-10.3-2.68-15.27-3.07-9.81-9.54-15.88-19.69-18-3.36-.7-6.73-.85-10.13-.95-4.67-.14-5.65-1-6.43-5.47-.33-1.91-.65-3.83-.84-5.76-1.41-13.76-4.48-27.11-9.74-39.93-5.54-13.53-11.71-26.82-21.64-37.71-23.77-26.04-53.3-35.43-87.51-27.28-28.26,6.73-52.18,21.62-71.57,43.33-7.46,8.35-13.81,17.54-15.74,29.05-.55,3.31-2.13,4.15-5.66,3.46-3.97-.78-7.94-1.47-11.98-1.86-24.13-2.33-49.37,19.48-48.39,43.61,.71,17.38,7.59,31.22,23.33,39.77,1.73,.94,2.64,2.21,3.24,3.97,1.48,4.36,4.11,8.03,7.03,11.54,6.4,7.68,14.61,12.65,23.81,16.19,9.88,3.8,20.18,5.84,30.59,7.38,14.66,2.16,29.36,2.47,44.01,.18,13.85-2.16,27.13-6.13,38.99-13.94,3.2-2.11,6.23-2.29,9.35,.26,2.12,1.74,4.46,3.21,6.7,4.81,24.48,17.51,52.16,25.14,78.11,26.52Z"/>
  <path d="M209.41,102.79c0-3.71-.03-7.42,.02-11.13,.01-1.12,.1-2.27,.37-3.35,.25-1.02,1.09-1.59,2.18-1.51,.86,.06,1.57,.55,1.8,1.38,.25,.92,.4,1.89,.43,2.85,.23,7.74,.43,15.48,.64,23.22,.02,.64,.02,1.29-.02,1.93-.09,1.4-.62,2.6-2.16,2.76-1.81,.19-2.74-1-2.77-2.62-.1-4.51-.03-9.03-.03-13.54-.15,0-.29,0-.44,0Z"/>
  <path d="M209.95,145.28c0-3.54-.02-7.07,.01-10.61,0-.96,.06-1.94,.28-2.86,.25-1.02,1.06-1.66,2.1-1.68,1.04-.02,1.87,.6,2.13,1.62,.23,.92,.3,1.9,.31,2.86,.06,7.4,.12,14.79,.1,22.19-.01,3.41-1,5.09-2.69,4.72-2.56-.56-2.31-2.75-2.33-4.65-.04-3.86-.01-7.72-.01-11.58,.03,0,.07,0,.1,0Z"/>
  <path d="M118.72,246.31c0,2.11,.04,3.88-.01,5.65-.04,1.39-.54,2.66-2.11,2.77-1.81,.13-2.51-1.2-2.71-2.76-.14-1.11-.08-2.25-.16-3.38-.25-3.69-.54-7.38-.78-11.07-.1-1.58,.3-3.07,2.09-3.26,1.82-.2,2.46,1.23,2.65,2.78,.39,3.19,.71,6.39,1.02,9.27Z"/>
  <path d="M116.54,213.32c0,2.26,.05,4.52-.02,6.78-.05,1.61-.78,2.92-2.56,2.9-1.85-.01-2.39-1.38-2.38-3,.03-4.52,.08-9.03,.17-13.55,.03-1.39,.53-2.64,2.14-2.73,1.88-.1,2.51,1.24,2.57,2.83,.08,2.26,.02,4.52,.02,6.77,.02,0,.05,0,.07,0Z"/>
  <path d="M103.44,226.72c1.95,.12,3.74,.14,5.5,.36,1.04,.13,1.71,.89,1.77,2,.06,1.11-.57,2-1.56,2.17-3.67,.64-7.38,.79-11.05-.01-.97-.21-1.64-1.06-1.57-2.18,.07-1.09,.75-1.87,1.77-2,1.76-.23,3.54-.25,5.14-.34Z"/>
  <path d="M198.79,128.58c-1.16-.25-2.92-.49-4.58-1.03-1.1-.36-1.84-1.32-1.64-2.63,.21-1.35,1.22-1.95,2.42-1.81,2.7,.32,5.38,.69,8.11,.17,.82-.15,1.51,.45,1.84,1.27,.39,1,.16,1.91-.61,2.62-1.4,1.28-3.16,1.43-5.53,1.42Z"/>
  <path d="M224.65,128.11c-1.43-.1-2.88-.11-4.3-.33-1.04-.16-1.64-.97-1.69-2.04-.05-1.09,.57-1.96,1.54-2.17,2.99-.65,6.04-.6,9.04-.07,.99,.18,1.7,1.02,1.72,2.07,.02,1.27-.73,2.17-1.99,2.3-1.43,.14-2.88,.03-4.32,.03,0,.07,0,.14,0,.2Z"/>
  <path d="M128.92,228.65c1.56,.17,4.05-.85,4.81,2.03,.45,1.68-1.07,2.55-4.64,2.84-1.44,.11-2.87,.18-4.31,.23-1.53,.05-3.07-.17-3.22-2.05-.17-2.13,1.43-2.6,3.15-2.74,1.28-.11,2.55-.18,4.21-.3Z"/>
  <path d="M716.92,445.11c-2.12,.45-3,1.68-4.03,2.62-26.04,23.65-41.49,52.95-46.7,87.7-.38,2.56-.61,5.14-.93,7.71-.1,.8-.17,1.62-.39,2.39-.9,3.15-3.17,4.86-5.98,4.58-2.78-.27-4.98-2.45-4.95-5.64,.03-3.54,.46-7.1,.98-10.62,9.55-65.24,56.73-116.72,121.26-130.53,50.32-10.77,95.9,1.11,136.5,32.5,1.14,.88,2.26,1.88,3.1,3.04,1.54,2.11,1.37,4.93-.24,6.74-1.71,1.92-3.91,2.32-6.2,1.45-1.32-.51-2.48-1.49-3.62-2.39-23.03-18.17-49.05-29.25-78.2-32.76-6.68-.8-13.42-1.43-20.51-.54,22.91,11.7,37.24,29.72,40.7,55.31,2.27,16.8-1.5,32.5-10.87,46.73-18.32,27.83-53.8,38.56-84.76,25.37-18.01-7.67-30.56-20.93-37.51-39.23-6.94-18.27-5.68-36.39,2.35-54.42Z"/>
  <path d="M619.66,470.16c-.08-19.18,4.9-37.47,12.6-55.15,2.01-4.62,4.65-8.88,7.67-12.9,.67-.89,1.43-1.75,2.29-2.46,.63-.54,1.48-.59,2.26-.09,.91,.58,1.39,1.43,1.13,2.46-.19,.76-.59,1.51-1.06,2.15-8.56,11.59-12.58,25.1-15.98,38.77-3.62,14.56-4.82,29.33-2.1,44.26,.67,3.69-.1,5.62-2.01,5.61-2.98-.02-2.95-2.6-3.35-4.54-1.21-5.88-1.86-11.82-1.45-18.11Z"/>
  <path d="M629.82,508.43c-.18,1.23-.81,1.9-1.93,1.83-1.17-.07-1.66-.92-1.56-1.98,.08-.85,.63-1.45,1.59-1.45,1.15,0,1.69,.68,1.9,1.61Z"/>
</svg>