<?xml version="1.0" encoding="UTF-8"?><svg id="Pfade" xmlns="http://www.w3.org/2000/svg" viewBox="0 0 48 48"><defs><style>.cls-1{fill:none;stroke:#000;stroke-miterlimit:10;stroke-width:2px;}</style></defs><path class="cls-1" d="M39,24c0-.94-.1-1.85-.26-2.74,1.33-.77,3.1-1.79,4.22-2.43,.42-.24,.83-.48,1.21-.7-.46-1.58-1.12-3.14-1.98-4.63-.86-1.49-1.88-2.84-3.02-4.03-1.35,.78-3.71,2.14-5.43,3.14-1.38-1.18-2.99-2.11-4.74-2.73,0-1.54,0-3.58,0-4.87,0-.48,0-.95,0-1.4-1.6-.39-3.28-.6-5-.6s-3.4,.21-5,.6c0,1.56,0,4.29,0,6.27-1.75,.62-3.35,1.55-4.74,2.73-1.33-.77-3.1-1.79-4.22-2.43-.42-.24-.83-.48-1.21-.7-1.14,1.19-2.16,2.54-3.02,4.03-.86,1.49-1.52,3.05-1.98,4.63,1.35,.78,3.71,2.14,5.43,3.13-.16,.89-.26,1.8-.26,2.74s.1,1.85,.26,2.74c-1.33,.77-3.1,1.79-4.22,2.43-.42,.24-.83,.48-1.21,.7,.46,1.58,1.12,3.14,1.98,4.63,.86,1.49,1.88,2.84,3.02,4.03,1.35-.78,3.71-2.14,5.43-3.14,1.38,1.18,2.99,2.11,4.74,2.73,0,1.54,0,3.58,0,4.87,0,.48,0,.95,0,1.4,1.6,.39,3.28,.6,5,.6s3.4-.21,5-.6c0-1.56,0-4.29,0-6.27,1.75-.62,3.35-1.55,4.74-2.73,1.33,.77,3.1,1.79,4.22,2.43,.42,.24,.83,.48,1.21,.7,1.14-1.19,2.16-2.54,3.02-4.03,.86-1.49,1.52-3.05,1.98-4.63-1.35-.78-3.71-2.14-5.43-3.13,.16-.89,.26-1.8,.26-2.74Z"/><circle class="cls-1" cx="24" cy="24" r="7"/></svg>