<svg width="17" height="16" viewBox="0 0 17 16" fill="none" xmlns="http://www.w3.org/2000/svg">
<path d="M15.9445 1.75735L14.7729 0.585785C13.9919 -0.195246 12.7256 -0.195277 11.9445 0.585785L0.931443 11.5988L0.534975 15.167C0.481912 15.6447 0.8856 16.0484 1.36322 15.9953L4.93147 15.5988L15.9445 4.58579C16.7255 3.80472 16.7255 2.53838 15.9445 1.75735ZM5.67669 10.8535C5.87197 11.0488 6.18854 11.0488 6.38379 10.8535L12.0303 5.20707L12.9696 6.14641L5.96776 13.1483V12.0625H4.46776V10.5625H3.38197L10.3838 3.56063L11.3232 4.49997L5.67669 10.1464C5.48141 10.3417 5.48141 10.6583 5.67669 10.8535ZM4.47235 14.6437L2.62876 14.8485L1.68172 13.9015L1.88657 12.0579L2.50697 11.4375H3.59276V12.9375H5.09276V14.0233L4.47235 14.6437ZM15.2374 3.87866L13.6767 5.43932L11.0909 2.85354L12.6516 1.29288C13.0423 0.902098 13.6749 0.902035 14.0658 1.29288L15.2374 2.46444C15.6282 2.85525 15.6282 3.48778 15.2374 3.87866Z" fill="black"/>
</svg>
