<svg width="18" height="16" viewBox="0 0 18 16" fill="none" xmlns="http://www.w3.org/2000/svg">
<path d="M17.076 9H9.66071L14.5991 13.9384C14.6956 14.0345 14.8261 14.0885 14.9623 14.0887C15.0816 14.0887 15.2004 14.0466 15.2926 13.9597C16.502 12.8203 17.3338 11.2844 17.5779 9.55781C17.6198 9.26219 17.3745 9 17.076 9ZM14.9538 12.8787L12.0751 10H16.4776C16.2238 11.0675 15.6976 12.0625 14.9538 12.8787ZM7.58259 9V1.58469C7.58259 1.30875 7.35821 1.07812 7.09071 1.07812C7.06915 1.07812 7.04696 1.07969 7.02477 1.08281C3.30102 1.60906 0.454463 4.8625 0.586963 8.76156C0.722275 12.7353 4.11946 16 8.08665 16C8.11727 16 8.14696 15.9997 8.17759 15.9994C9.75259 15.9797 11.2079 15.4722 12.4045 14.6234C12.6513 14.4484 12.6676 14.085 12.4535 13.8709L7.58259 9ZM8.16477 14.9994L8.08634 15C4.67884 15 1.70196 12.1275 1.58634 8.7275C1.48009 5.59844 3.5929 2.88281 6.58259 2.18219V9.41406L6.8754 9.70687L11.3079 14.1394C10.3529 14.69 9.2779 14.9856 8.16477 14.9994ZM16.5813 6.975C16.3238 3.24187 13.3407 0.25875 9.60759 0.00125C9.59665 0.0003125 9.58571 0 9.57509 0C9.30446 0 9.08259 0.232812 9.08259 0.507187V7.5H16.0754C16.361 7.5 16.601 7.26 16.5813 6.975ZM10.0826 6.5V1.05938C12.8716 1.49094 15.0913 3.71094 15.5232 6.5H10.0826Z" fill="black"/>
</svg>
