<svg width="17" height="14" viewBox="0 0 17 14" fill="none" xmlns="http://www.w3.org/2000/svg">
<path d="M16.4361 6.16219L9.1595 0.224685C8.9808 0.0805558 8.75814 0.00195313 8.52856 0.00195312C8.29898 0.00195312 8.07632 0.0805558 7.89762 0.224685L0.62356 6.16219C0.572245 6.20401 0.539611 6.26447 0.532816 6.33032C0.52602 6.39616 0.545618 6.46202 0.58731 6.51344L0.902935 6.90125C0.944588 6.95234 1.00473 6.98491 1.07028 6.99187C1.13583 6.99884 1.20148 6.97963 1.25293 6.93844L2.52981 5.89531V13.4891C2.52981 13.6217 2.58249 13.7488 2.67626 13.8426C2.77002 13.9364 2.8972 13.9891 3.02981 13.9891H7.02981C7.16242 13.9891 7.2896 13.9364 7.38336 13.8426C7.47713 13.7488 7.52981 13.6217 7.52981 13.4891V9.48906L9.52981 9.49844V13.5009C9.52981 13.6335 9.58249 13.7607 9.67626 13.8545C9.77003 13.9483 9.8972 14.0009 10.0298 14.0009L14.0298 13.9906C14.1624 13.9906 14.2896 13.9379 14.3834 13.8442C14.4771 13.7504 14.5298 13.6232 14.5298 13.4906V5.89531L15.8067 6.93844C15.8581 6.98023 15.924 6.99988 15.99 6.99308C16.0559 6.98629 16.1164 6.95359 16.1582 6.90219L16.4739 6.51437C16.4946 6.48879 16.51 6.45937 16.5193 6.42781C16.5286 6.39624 16.5316 6.36315 16.5281 6.33043C16.5246 6.29771 16.5146 6.266 16.4989 6.23713C16.4831 6.20826 16.4617 6.18279 16.4361 6.16219ZM13.5264 12.9931H13.5295L10.5295 13.0025V8.99719C10.5291 8.86497 10.4765 8.73827 10.3832 8.64464C10.2898 8.551 10.1633 8.49801 10.0311 8.49719L7.03106 8.48875C6.96527 8.48854 6.90008 8.50132 6.83924 8.52636C6.7784 8.55139 6.72309 8.58819 6.6765 8.63464C6.6299 8.68109 6.59293 8.73628 6.56771 8.79705C6.54248 8.85781 6.5295 8.92296 6.5295 8.98875V12.9931H3.52981V5.07937L8.52981 0.99906L13.5298 5.07937L13.5264 12.9931Z" fill="black"/>
</svg>
