<svg id="exxeta_superzeichen" data-name="exxeta superzeichen" xmlns="http://www.w3.org/2000/svg" width="202" height="199" viewBox="0 0 202 199">
  <path d="M156.6844,125.6236a.3761.3761,0,0,1-.384-.3842c14.5932-20.361,26.114-32.27,43.7794-32.27V51.863c-34.5627,0-56.4524,21.5134-73.35,43.7953l-22.6577-22.666C126.4771,55.9893,147.4677,34.7943,147.4677,0H105.9924c0,19.1461-11.5209,31.1178-29.9544,45.7162L56.8365,26.5078C52.7506,22.42,46.0837,11.141,46.0837,0H4.2244c0,23.8186,12.673,44.9479,23.4258,55.7046l13.4411,13.446C19.5856,85.67,0,106.7992,0,140.222H41.0913c0-17.7634,10.4993-29.6762,28.8023-43.027L102.92,129.8494c-13.0571,17.6718-24.962,28.0444-42.6274,28.0444V199c33.4106,0,54.9163-18.44,71.8137-39.57C147.4677,175.95,172.43,199,202,199V157.8938C186.6388,157.8938,166.2852,135.9961,156.6844,125.6236Z"/>
</svg>
