<svg width="17" height="16" viewBox="0 0 17 16" fill="none" xmlns="http://www.w3.org/2000/svg">
<g clip-path="url(#clip0_5_2448)">
<path d="M1.60596 2H5.73096C5.93721 2 6.10596 2.16875 6.10596 2.375V2.625C6.10596 2.83125 5.93721 3 5.73096 3H1.60596C1.33096 3 1.10596 3.225 1.10596 3.5V12.5C1.10596 12.775 1.33096 13 1.60596 13H5.73096C5.93721 13 6.10596 13.1687 6.10596 13.375V13.625C6.10596 13.8313 5.93721 14 5.73096 14H1.60596C0.777832 14 0.105957 13.3281 0.105957 12.5V3.5C0.105957 2.67188 0.777832 2 1.60596 2ZM10.3247 2.60938L10.1028 2.83125C9.95596 2.97812 9.95596 3.21562 10.1028 3.3625L14.2278 7.46875H5.48096C5.27471 7.46875 5.10596 7.6375 5.10596 7.84375V8.15625C5.10596 8.3625 5.27471 8.53125 5.48096 8.53125H14.2278L10.106 12.6375C9.95908 12.7844 9.95908 13.0219 10.106 13.1687L10.3278 13.3906C10.4747 13.5375 10.7122 13.5375 10.8591 13.3906L15.9997 8.26562C16.1466 8.11875 16.1466 7.88125 15.9997 7.73438L10.856 2.60938C10.7091 2.4625 10.4716 2.4625 10.3247 2.60938Z" fill="black"/>
</g>
<defs>
<clipPath id="clip0_5_2448">
<rect width="16" height="16" fill="white" transform="translate(0.105957)"/>
</clipPath>
</defs>
</svg>
